<?xml version="1.0" encoding="UTF-8"?>
<!DOCTYPE svg PUBLIC "-//W3C//DTD SVG 1.1//EN" "http://www.w3.org/Graphics/SVG/1.1/DTD/svg11.dtd">
<!-- Creator: CorelDRAW 2021 (64-Bit) -->
<svg xmlns="http://www.w3.org/2000/svg" xml:space="preserve" width="1.74391in" height="0.647071in" version="1.1" style="shape-rendering:geometricPrecision; text-rendering:geometricPrecision; image-rendering:optimizeQuality; fill-rule:evenodd; clip-rule:evenodd"
viewBox="0 0 493.56 183.13"
 xmlns:xlink="http://www.w3.org/1999/xlink"
 xmlns:xodm="http://www.corel.com/coreldraw/odm/2003">
 <defs>
  <style type="text/css">
   <![CDATA[
    .fil4 {fill:none}
    .fil3 {fill:none;fill-rule:nonzero}
    .fil1 {fill:#B3B3B3;fill-rule:nonzero}
    .fil2 {fill:white;fill-rule:nonzero}
    .fil0 {fill:url(#id3)}
   ]]>
  </style>
    <clipPath id="id0">
     <path d="M229.12 0l172.69 0c2.64,-0.05 5.29,0.93 7.3,2.93l81.51 81.51c3.91,3.91 3.91,10.32 0,14.23l-81.51 81.51c-2,2 -4.65,2.98 -7.28,2.93l-172.7 0c-5.05,0 -9.18,-4.13 -9.18,-9.18l0 -164.78c0,-5.05 4.13,-9.18 9.18,-9.18z"/>
    </clipPath>
     <clipPath id="id1" style="clip-rule:nonzero">
      <path d="M219.95 44.81l15.19 0 0 112.22 20.57 0 0 -112.22 21.51 0 0 -18.7 -57.27 0 0 18.7zm104.78 -18.7l-30.11 0 -20.95 130.92 18.89 0 3.55 -23.75 25.25 0 3.55 23.75 20.76 0 -20.95 -130.92zm-16.09 23.19l9.91 66.21 -19.83 0 9.91 -66.21zm77.62 -23.19l-31.05 0 0 130.92 32.36 0c20.57,0 31.23,-10.85 31.23,-31.05l0 -10.66c0,-13.84 -4.3,-23.75 -15.34,-28.06 9.16,-4.3 13.28,-12.91 13.28,-26.37l0 -4.68c0,-20.2 -9.16,-30.11 -30.49,-30.11zm-1.31 72.01c9.35,0 13.28,3.74 13.28,15.9l0 11.41c0,9.73 -3.74,12.91 -10.66,12.91l-11.78 0 0 -40.21 9.16 0zm0.75 -53.3c7.29,0 10.47,4.11 10.47,13.47l0 7.29c0,10.47 -4.68,13.84 -12.34,13.84l-8.04 0 0 -34.6 9.91 0z"/>
     </clipPath>
     <clipPath id="id2" style="clip-rule:nonzero">
      <path d="M229.12 0l172.69 0c2.64,-0.05 5.29,0.93 7.3,2.93l81.51 81.51c3.91,3.91 3.91,10.32 0,14.23l-81.51 81.51c-2,2 -4.65,2.98 -7.28,2.93l-172.7 0c-5.05,0 -9.18,-4.13 -9.18,-9.18l0 -164.78c0,-5.05 4.13,-9.18 9.18,-9.18z"/>
     </clipPath>
  <linearGradient id="id3" gradientUnits="userSpaceOnUse" x1="415.53" y1="194.2" x2="349.2" y2="-9.96">
   <stop offset="0" style="stop-opacity:1; stop-color:red"/>
   <stop offset="1" style="stop-opacity:1; stop-color:#FF6600"/>
  </linearGradient>
 </defs>
 <g id="Layer_x0020_1">
  <metadata id="CorelCorpID_0Corel-Layer"/>
  <g id="_2460187487584">
   <path class="fil0" d="M229.12 0l172.69 0c2.64,-0.05 5.29,0.93 7.3,2.93l81.51 81.51c3.91,3.91 3.91,10.32 0,14.23l-81.51 81.51c-2,2 -4.65,2.98 -7.28,2.93l-172.7 0c-5.05,0 -9.18,-4.13 -9.18,-9.18l0 -164.78c0,-5.05 4.13,-9.18 9.18,-9.18z"/>
   <g style="clip-path:url(#id0)">
    <g>
     <path id="_1" class="fil1" d="M213.62 44.81l21.51 0 0 112.22 20.57 0 0 -112.22 21.51 0 0 -18.7 -63.59 0 0 18.7zm111.1 -18.7l-30.11 0 -20.95 130.92 18.89 0 3.55 -23.75 25.25 0 3.55 23.75 20.76 0 -20.95 -130.92zm-16.09 23.19l9.91 66.21 -19.83 0 9.91 -66.21zm77.62 -23.19l-31.05 0 0 130.92 32.36 0c20.57,0 31.23,-10.85 31.23,-31.05l0 -10.66c0,-13.84 -4.3,-23.75 -15.34,-28.06 9.16,-4.3 13.28,-12.91 13.28,-26.37l0 -4.68c0,-20.2 -9.16,-30.11 -30.49,-30.11l0 0zm-1.31 72.01c9.35,0 13.28,3.74 13.28,15.9l0 11.41c0,9.73 -3.74,12.91 -10.66,12.91l-11.78 0 0 -40.21 9.16 0zm0.75 -53.3c7.29,0 10.47,4.11 10.47,13.47l0 7.29c0,10.47 -4.68,13.84 -12.34,13.84l-8.04 0 0 -34.6 9.91 0z"/>
    </g>
    <g style="clip-path:url(#id1)">
     <g>
      <path id="_2" class="fil2" d="M210.82 51.12l21.51 0 0 104.22 20.57 0 0 -112.22 21.51 0 0 -18.7 -63.59 0 0 26.7zm111.1 -26.7l-30.11 0 -20.95 130.92 18.89 0 3.55 -23.75 25.25 0 3.55 23.75 20.76 0 -20.95 -130.92zm-16.09 23.19l9.91 67.89 -19.83 0 9.91 -67.89zm77.62 -23.19l-31.05 0 0 130.92 32.36 0c20.57,0 31.23,-10.85 31.23,-31.05l0 -10.66c0,-13.84 -4.3,-23.75 -15.34,-28.06 9.16,-4.3 13.28,-12.91 13.28,-26.37l0 -4.68c0,-20.2 -9.16,-30.11 -30.49,-30.11l0 0zm-1.31 72.01c9.35,0 13.28,3.74 13.28,15.9l0 11.41c0,9.73 -3.74,14.59 -10.66,14.59l-11.78 0 0 -41.89 9.16 0zm0.75 -53.31c7.29,0 10.47,4.11 10.47,13.47l0 7.29c0,10.47 -4.68,15.52 -12.34,15.52l-8.04 0 0 -36.28 9.91 0z"/>
     </g>
    </g>
    <g style="clip-path:url(#id2)">
     <path class="fil3" d="M213.62 44.81l21.51 0 0 112.22 20.57 0 0 -112.22 21.51 0 0 -18.7 -63.59 0 0 18.7zm111.1 -18.7l-30.11 0 -20.95 130.92 18.89 0 3.55 -23.75 25.25 0 3.55 23.75 20.76 0 -20.95 -130.92zm-16.09 23.19l9.91 66.21 -19.83 0 9.91 -66.21zm77.62 -23.19l-31.05 0 0 130.92 32.36 0c20.57,0 31.23,-10.85 31.23,-31.05l0 -10.66c0,-13.84 -4.3,-23.75 -15.34,-28.06 9.16,-4.3 13.28,-12.91 13.28,-26.37l0 -4.68c0,-20.2 -9.16,-30.11 -30.49,-30.11l0 0zm-1.31 72.01c9.35,0 13.28,3.74 13.28,15.9l0 11.41c0,9.73 -3.74,12.91 -10.66,12.91l-11.78 0 0 -40.21 9.16 0zm0.75 -53.3c7.29,0 10.47,4.11 10.47,13.47l0 7.29c0,10.47 -4.68,13.84 -12.34,13.84l-8.04 0 0 -34.6 9.91 0z"/>
    </g>
   </g>
   <path class="fil4" d="M229.12 0l172.69 0c2.64,-0.05 5.29,0.93 7.3,2.93l81.51 81.51c3.91,3.91 3.91,10.32 0,14.23l-81.51 81.51c-2,2 -4.65,2.98 -7.28,2.93l-172.7 0c-5.05,0 -9.18,-4.13 -9.18,-9.18l0 -164.78c0,-5.05 4.13,-9.18 9.18,-9.18z"/>
   <path class="fil2" d="M20.58 56.21c0,-9.35 4.12,-12.91 10.66,-12.91 6.55,0 10.66,3.55 10.66,12.91l0 70.72c0,9.35 -4.12,12.91 -10.66,12.91 -6.55,0 -10.66,-3.55 -10.66,-12.91l0 -70.72zm-20.58 69.41c0,20.95 11.04,32.93 31.24,32.93 20.2,0 31.24,-11.97 31.24,-32.93l0 -68.1c0,-20.95 -11.04,-32.93 -31.24,-32.93 -20.2,0 -31.24,11.97 -31.24,32.93l0 68.1z"/>
   <polygon id="_1_0" class="fil2" points="119.73,157.04 140.87,157.04 140.87,26.09 122.54,26.09 122.54,104.47 101.4,26.09 75.58,26.09 75.58,157.04 94.1,157.04 94.1,62.19 "/>
   <polygon id="_2_1" class="fil2" points="176.23,44.8 211.78,44.8 211.78,26.09 155.65,26.09 155.65,157.04 211.78,157.04 211.78,138.34 176.23,138.34 176.23,99.98 204.48,99.98 204.48,81.28 176.23,81.28 "/>
  </g>
 </g>
</svg>
